name ./resultDataOpenSim/trcMotMarkerGrf/sub09/grf-12-02.mot
datacolumns 19
datarows 17
range 0.48000000 0.54400000
endheader

                time	     ground_force_vx	     ground_force_vy	     ground_force_vz	     ground_force_px	     ground_force_py	     ground_force_pz	   l_ground_force_vx	   l_ground_force_vy	   l_ground_force_vz	   l_ground_force_px	   l_ground_force_py	   l_ground_force_pz	     ground_torque_x	     ground_torque_y	     ground_torque_z	   l_ground_torque_x	   l_ground_torque_y	   l_ground_torque_z	
          0.48000000	         38.57792835	        443.53083141	        -22.58600534	         -0.68680119	          0.00000000	          0.07762413	          0.00000000	          0.00000000	          0.00000000	          0.00000000	          0.00000000	          0.00000000	          0.00000000	          4.10922918	          0.00000000	          0.00000000	          0.00000000	          0.00000000	
          0.48400000	         42.23006031	        452.45908514	        -24.33472460	         -0.68567487	          0.00000000	          0.07819260	          0.00000000	          0.00000000	          0.00000000	          0.00000000	          0.00000000	          0.00000000	          0.00000000	          4.33453251	          0.00000000	          0.00000000	          0.00000000	          0.00000000	
          0.48800000	         45.92394871	        461.89861204	        -25.56653951	         -0.68446135	          0.00000000	          0.07867396	          0.00000000	          0.00000000	          0.00000000	          0.00000000	          0.00000000	          0.00000000	          0.00000000	          4.64967080	          0.00000000	          0.00000000	          0.00000000	          0.00000000	
          0.49200000	         49.52791566	        471.82541829	        -26.30627583	         -0.68321507	          0.00000000	          0.07905829	          0.00000000	          0.00000000	          0.00000000	          0.00000000	          0.00000000	          0.00000000	          0.00000000	          5.05003742	          0.00000000	          0.00000000	          0.00000000	          0.00000000	
          0.49600000	         52.94777458	        482.06779272	        -26.65538189	         -0.68188932	          0.00000000	          0.07939155	          0.00000000	          0.00000000	          0.00000000	          0.00000000	          0.00000000	          0.00000000	          0.00000000	          5.51422475	          0.00000000	          0.00000000	          0.00000000	          0.00000000	
          0.50000000	         56.12930825	        492.38586840	        -26.80994478	         -0.68030478	          0.00000000	          0.07975830	          0.00000000	          0.00000000	          0.00000000	          0.00000000	          0.00000000	          0.00000000	          0.00000000	          6.00637069	          0.00000000	          0.00000000	          0.00000000	          0.00000000	
          0.50400000	         59.06664936	        502.71362590	        -27.03578520	         -0.67832234	          0.00000000	          0.08020361	          0.00000000	          0.00000000	          0.00000000	          0.00000000	          0.00000000	          0.00000000	          0.00000000	          6.48163658	          0.00000000	          0.00000000	          0.00000000	          0.00000000	
          0.50800000	         61.84334754	        513.25276597	        -27.58791229	         -0.67612225	          0.00000000	          0.08068412	          0.00000000	          0.00000000	          0.00000000	          0.00000000	          0.00000000	          0.00000000	          0.00000000	          6.89344982	          0.00000000	          0.00000000	          0.00000000	          0.00000000	
          0.51200000	         64.60666062	        524.27051791	        -28.65064629	         -0.67397002	          0.00000000	          0.08114396	          0.00000000	          0.00000000	          0.00000000	          0.00000000	          0.00000000	          0.00000000	          0.00000000	          7.20092462	          0.00000000	          0.00000000	          0.00000000	          0.00000000	
          0.51600000	         67.46227367	        535.82921615	        -30.32367881	         -0.67196467	          0.00000000	          0.08157281	          0.00000000	          0.00000000	          0.00000000	          0.00000000	          0.00000000	          0.00000000	          0.00000000	          7.37524947	          0.00000000	          0.00000000	          0.00000000	          0.00000000	
          0.52000000	         70.42242940	        547.74264955	        -32.61162414	         -0.66996872	          0.00000000	          0.08199520	          0.00000000	          0.00000000	          0.00000000	          0.00000000	          0.00000000	          0.00000000	          0.00000000	          7.40417661	          0.00000000	          0.00000000	          0.00000000	          0.00000000	
          0.52400000	         73.44695087	        559.80064794	        -35.41183216	         -0.66781781	          0.00000000	          0.08243021	          0.00000000	          0.00000000	          0.00000000	          0.00000000	          0.00000000	          0.00000000	          0.00000000	          7.29385035	          0.00000000	          0.00000000	          0.00000000	          0.00000000	
          0.52800000	         76.48438706	        572.01920054	        -38.51342064	         -0.66553986	          0.00000000	          0.08283928	          0.00000000	          0.00000000	          0.00000000	          0.00000000	          0.00000000	          0.00000000	          0.00000000	          7.06744363	          0.00000000	          0.00000000	          0.00000000	          0.00000000	
          0.53200000	         79.47108116	        584.62373060	        -41.61860297	         -0.66333490	          0.00000000	          0.08313227	          0.00000000	          0.00000000	          0.00000000	          0.00000000	          0.00000000	          0.00000000	          0.00000000	          6.76071910	          0.00000000	          0.00000000	          0.00000000	          0.00000000	
          0.53600000	         82.33363098	        597.75376922	        -44.39050470	         -0.66133641	          0.00000000	          0.08324455	          0.00000000	          0.00000000	          0.00000000	          0.00000000	          0.00000000	          0.00000000	          0.00000000	          6.41556661	          0.00000000	          0.00000000	          0.00000000	          0.00000000	
          0.54000000	         85.02817952	        611.23084097	        -46.49922617	         -0.65944657	          0.00000000	          0.08318970	          0.00000000	          0.00000000	          0.00000000	          0.00000000	          0.00000000	          0.00000000	          0.00000000	          6.07324705	          0.00000000	          0.00000000	          0.00000000	          0.00000000	
          0.54400000	         87.57843609	        624.71282515	        -47.66611631	         -0.65743721	          0.00000000	          0.08302271	          0.00000000	          0.00000000	          0.00000000	          0.00000000	          0.00000000	          0.00000000	          0.00000000	          5.76887475	          0.00000000	          0.00000000	          0.00000000	          0.00000000	
